<?xml version="1.0" encoding="UTF-8" standalone="no"?>
<!DOCTYPE svg PUBLIC "-//W3C//DTD SVG 1.1//EN" "http://www.w3.org/Graphics/SVG/1.1/DTD/svg11.dtd">
<svg width="100%" height="100%" viewBox="0 0 64 64" version="1.1" xmlns="http://www.w3.org/2000/svg" xmlns:xlink="http://www.w3.org/1999/xlink" xml:space="preserve" xmlns:serif="http://www.serif.com/" style="fill-rule:evenodd;clip-rule:evenodd;stroke-linejoin:round;stroke-miterlimit:2;">
    <rect id="Large" x="0" y="0" width="64" height="64" style="fill:none;"/>
    <clipPath id="_clip1">
        <rect id="Large1" serif:id="Large" x="0" y="0" width="64" height="64"/>
    </clipPath>
    <g clip-path="url(#_clip1)">
        <path id="R" d="M55.826,36L48,36L48,40L55.826,40M8.174,0L55.826,0L55.826,64L36,64L36,40L28,40L28,64L8.174,64L8.174,0Z"/>
        <g id="Grape">
            <path d="M32,12L28,12L28,16L24,16L24,28L20,28L20,24L16,24L16,12L20,12L20,8L32,8L32,12Z" style="fill:#c824ff;"/>
            <path d="M28,8L28,12L24,12L24,16L20,16L20,20L16,20L16,12L20,12L20,8L28,8Z" style="fill:#f2caff;"/>
        </g>
        <g id="Grape1" serif:id="Grape">
            <path d="M44,16L48,16L48,28L44,28L44,32L32,32L32,28L28,28L28,16L32,16L32,12L44,12L44,16Z" style="fill:#c824ff;"/>
            <path d="M40,12L40,16L36,16L36,20L32,20L32,24L28,24L28,16L32,16L32,12L40,12Z" style="fill:#f2caff;"/>
            <path d="M44,28L40,28L40,32L44,32L44,28ZM48,24L44,24L44,28L48,28L48,24Z" style="fill:#650087;"/>
        </g>
    </g>
</svg>
